<?xml version="1.0" encoding="UTF-8" standalone="no"?>
<svg
   width="32"
   height="32"
   viewBox="0 0 48 48"
   version="1.1"
   id="svg3"
   sodipodi:docname="ArcticonsStarfield.svg"
   inkscape:export-filename="ArcticonsStarfield.png"
   inkscape:export-xdpi="96"
   inkscape:export-ydpi="96"
   inkscape:version="1.4 (86a8ad7, 2024-10-11)"
   xmlns:inkscape="http://www.inkscape.org/namespaces/inkscape"
   xmlns:sodipodi="http://sodipodi.sourceforge.net/DTD/sodipodi-0.dtd"
   xmlns="http://www.w3.org/2000/svg"
   xmlns:svg="http://www.w3.org/2000/svg">
  <defs
     id="defs3" />
  <sodipodi:namedview
     id="namedview3"
     pagecolor="#ffffff"
     bordercolor="#000000"
     borderopacity="0.25"
     inkscape:showpageshadow="2"
     inkscape:pageopacity="0.0"
     inkscape:pagecheckerboard="0"
     inkscape:deskcolor="#d1d1d1"
     inkscape:zoom="36.46875"
     inkscape:cx="16"
     inkscape:cy="16"
     inkscape:window-width="3440"
     inkscape:window-height="1369"
     inkscape:window-x="1072"
     inkscape:window-y="-8"
     inkscape:window-maximized="1"
     inkscape:current-layer="svg3" />
  <circle
     cx="24"
     cy="24"
     r="21.5"
     fill="none"
     stroke="currentColor"
     stroke-linecap="round"
     stroke-linejoin="round"
     id="circle1" />
  <path
     fill="none"
     stroke="currentColor"
     stroke-linecap="round"
     stroke-linejoin="round"
     d="M8.58 38.97c3.9-4.02 9.37-6.52 15.42-6.52s11.52 2.5 15.42 6.52"
     id="path1" />
  <path
     fill="none"
     stroke="currentColor"
     stroke-linecap="round"
     stroke-linejoin="round"
     d="M9.79 40.12c3.79-3.36 8.76-5.38 14.21-5.38s10.42 2.02 14.21 5.38M28.179 29.483v-1.537m-.769.768h1.537m-9.126.769v-1.537m-.768.768h1.537m9.589-7.91v-1.537m-.769.769h1.537m-13.126.768v-1.537m-.768.769h1.537M31.21 3.739C27.87 19.155 43.785 22.946 44.184 31.42M37.467 7.24c-2.833 7.946 7.35 14.152 8.016 17.617M24 20.916l.439.941c.17.365.463.658.827.828l.941.438l-.941.44a1.7 1.7 0 0 0-.827.826l-.439.942l-.439-.942a1.7 1.7 0 0 0-.827-.827l-.941-.439l.941-.438a1.7 1.7 0 0 0 .827-.828zM24 9.73l.068.22a4.07 4.07 0 0 0 2.685 2.684l.219.068l-.22.068a4.07 4.07 0 0 0-2.684 2.685l-.068.22l-.068-.22a4.07 4.07 0 0 0-2.685-2.685l-.219-.068l.22-.068a4.07 4.07 0 0 0 2.684-2.685zm-7.21-5.991C20.13 19.155 4.215 22.946 3.816 31.42m6.717-24.18c2.834 7.946-7.35 14.152-8.016 17.617m33.176 2.123l.344.739c.134.286.364.516.65.65l.74.344l-.74.345a1.34 1.34 0 0 0-.65.65l-.344.739l-.345-.74a1.34 1.34 0 0 0-.65-.65l-.74-.344l.74-.345c.286-.133.517-.363.65-.65zm-23.388 0l.345.739c.133.286.363.516.65.65l.739.344l-.74.345a1.34 1.34 0 0 0-.65.65l-.344.739l-.345-.74a1.34 1.34 0 0 0-.65-.65l-.739-.344l.74-.345c.286-.133.516-.363.65-.65z"
     id="path2" />
  <path
     fill="none"
     stroke="currentColor"
     stroke-linecap="round"
     stroke-linejoin="round"
     d="M9.95 40.26c2.79-2.24 6.33-3.58 10.19-3.58c5.41 0 10.21 2.64 13.17 6.7"
     id="path3" />
</svg>
