<svg xmlns="http://www.w3.org/2000/svg" viewBox="-3 -3 403 73" width="400" height="70"><defs><linearGradient id="15634380612457655225" x1="104.45599999999993" x2="427.0880000000001" y1="80.1746056639862" y2="80.1746056639862" gradientTransform="matrix(0.003099507,0,0,0.142857143,-0.323762057,-10.953515095)"><stop stop-color="#d4ac63" /><stop offset="0.241803" stop-color="#cd2435" /><stop offset="0.495902" stop-color="#e56335" /><stop offset="0.733607" stop-color="#2b4d7d" /><stop offset="1" stop-color="#f4f5f7" /></linearGradient></defs><g transform="matrix(1,0,0,1,-23.166666716,-16.278605884)">
<g>
	<g>
		<path d="M123.536,71.854606Q118.064,71.854606 113.744,69.910606 Q109.424,67.966606 106.94,64.042606 Q104.456,60.118606 104.456,54.214606 Q104.456,52.702606 104.456,52.702606 C104.456,52.702606 110.432,52.702606 110.432,52.702606 C110.432,52.702606 110.432,54.214606 110.432,54.214606 Q110.432,60.478606 114.104,63.538606 Q117.776,66.598606 123.536,66.598606 Q129.44,66.598606 132.536,63.934606 Q135.632,61.270606 135.632,57.238606 Q135.632,54.430606 134.228,52.774606 Q132.824,51.118606 130.304,50.074606 Q127.784,49.030606 124.4,48.238606 Q120.656,47.302606 120.656,47.302606 Q116.264,46.150606 112.88,44.494606 Q109.496,42.838606 107.588,40.138606 Q105.68,37.438606 105.68,33.190606 Q105.68,28.942606 107.804,25.846606 Q109.928,22.750606 113.78,21.094606 Q117.632,19.438606 122.672,19.438606 Q127.784,19.438606 131.852,21.202606 Q135.92,22.966606 138.26,26.386606 Q140.6,29.806606 140.6,34.990606 Q140.6,38.014606 140.6,38.014606 C140.6,38.014606 134.624,38.014606 134.624,38.014606 C134.624,38.014606 134.624,34.990606 134.624,34.990606 Q134.624,31.318606 133.076,29.086606 Q131.528,26.854606 128.828,25.774606 Q126.128,24.694606 122.672,24.694606 Q117.704,24.694606 114.68,26.890606 Q111.656,29.086606 111.656,33.118606 Q111.656,35.782606 112.952,37.438606 Q114.248,39.094606 116.624,40.138606 Q119,41.182606 122.312,41.974606 Q126.056,42.910606 126.056,42.910606 Q130.448,43.846606 133.94,45.466606 Q137.432,47.086606 139.52,49.858606 Q141.608,52.630606 141.608,57.094606 Q141.608,61.558606 139.376,64.870606 Q137.144,68.182606 133.076,70.018606 Q129.008,71.854606 123.536,71.854606 Q123.536,71.854606 123.536,71.854606 ZM164.072,70.846606Q161.048,70.846606 159.428,69.190606 Q157.808,67.534606 157.808,64.654606 Q157.808,40.606606 157.808,40.606606 C157.808,40.606606 147.224,40.606606 147.224,40.606606 C147.224,40.606606 147.224,35.638606 147.224,35.638606 C147.224,35.638606 157.808,35.638606 157.808,35.638606 C157.808,35.638606 157.808,23.110606 157.808,23.110606 C157.808,23.110606 163.496,23.110606 163.496,23.110606 C163.496,23.110606 163.496,35.638606 163.496,35.638606 C163.496,35.638606 175.016,35.638606 175.016,35.638606 C175.016,35.638606 175.016,40.606606 175.016,40.606606 C175.016,40.606606 163.496,40.606606 163.496,40.606606 C163.496,40.606606 163.496,63.790606 163.496,63.790606 Q163.496,65.950606 165.584,65.950606 Q173.432,65.950606 173.432,65.950606 C173.432,65.950606 173.432,70.846606 173.432,70.846606 C173.432,70.846606 164.072,70.846606 164.072,70.846606 C164.072,70.846606 164.072,70.846606 164.072,70.846606 ZM194.816,71.854606Q191.144,71.854606 188.12,70.558606 Q185.096,69.262606 183.368,66.814606 Q181.64,64.366606 181.64,60.838606 Q181.64,57.238606 183.368,54.898606 Q185.096,52.558606 188.12,51.370606 Q191.144,50.182606 194.888,50.182606 Q206.768,50.182606 206.768,50.182606 C206.768,50.182606 206.768,47.590606 206.768,47.590606 Q206.768,43.846606 204.572,41.686606 Q202.376,39.526606 198.056,39.526606 Q193.808,39.526606 191.432,41.578606 Q189.056,43.630606 188.192,47.086606 Q182.864,45.358606 182.864,45.358606 Q183.728,42.406606 185.6,39.994606 Q187.472,37.582606 190.604,36.106606 Q193.736,34.630606 198.128,34.630606 Q204.896,34.630606 208.64,38.122606 Q212.384,41.614606 212.384,47.950606 Q212.384,63.862606 212.384,63.862606 Q212.384,66.022606 214.4,66.022606 Q217.64,66.022606 217.64,66.022606 C217.64,66.022606 217.64,70.846606 217.64,70.846606 C217.64,70.846606 212.672,70.846606 212.672,70.846606 Q210.296,70.846606 208.856,69.514606 Q207.416,68.182606 207.416,65.950606 Q207.416,65.590606 207.416,65.590606 C207.416,65.590606 206.552,65.590606 206.552,65.590606 Q205.76,66.958606 204.428,68.434606 Q203.096,69.910606 200.792,70.882606 Q198.488,71.854606 194.816,71.854606 Q194.816,71.854606 194.816,71.854606 ZM195.464,66.958606Q200.504,66.958606 203.636,63.970606 Q206.768,60.982606 206.768,55.582606 Q206.768,54.790606 206.768,54.790606 C206.768,54.790606 195.104,54.790606 195.104,54.790606 Q191.72,54.790606 189.524,56.266606 Q187.328,57.742606 187.328,60.694606 Q187.328,63.646606 189.596,65.302606 Q191.864,66.958606 195.464,66.958606 Q195.464,66.958606 195.464,66.958606 ZM225.416,70.846606C225.416,70.846606 225.416,35.638606 225.416,35.638606 C225.416,35.638606 230.96,35.638606 230.96,35.638606 C230.96,35.638606 230.96,39.958606 230.96,39.958606 C230.96,39.958606 231.968,39.958606 231.968,39.958606 Q232.904,37.654606 234.848,36.574606 Q236.792,35.494606 239.96,35.494606 Q244.136,35.494606 244.136,35.494606 C244.136,35.494606 244.136,40.678606 244.136,40.678606 C244.136,40.678606 239.6,40.678606 239.6,40.678606 Q235.784,40.678606 233.444,42.802606 Q231.104,44.926606 231.104,49.390606 Q231.104,70.846606 231.104,70.846606 C231.104,70.846606 225.416,70.846606 225.416,70.846606 C225.416,70.846606 225.416,70.846606 225.416,70.846606 ZM249.968,70.846606C249.968,70.846606 249.968,65.446606 249.968,65.446606 C249.968,65.446606 257.024,65.446606 257.024,65.446606 C257.024,65.446606 257.024,25.846606 257.024,25.846606 C257.024,25.846606 249.968,25.846606 249.968,25.846606 C249.968,25.846606 249.968,20.446606 249.968,20.446606 C249.968,20.446606 269.624,20.446606 269.624,20.446606 Q279.56,20.446606 284.996,25.486606 Q290.432,30.526606 290.432,40.966606 Q290.432,50.326606 290.432,50.326606 Q290.432,60.838606 284.996,65.842606 Q279.56,70.846606 269.624,70.846606 Q249.968,70.846606 249.968,70.846606 C249.968,70.846606 249.968,70.846606 249.968,70.846606 ZM263.072,65.374606C263.072,65.374606 269.624,65.374606 269.624,65.374606 Q276.968,65.374606 280.712,61.774606 Q284.456,58.174606 284.456,50.614606 Q284.456,40.750606 284.456,40.750606 Q284.456,33.046606 280.712,29.518606 Q276.968,25.990606 269.624,25.990606 Q263.072,25.990606 263.072,25.990606 C263.072,25.990606 263.072,65.374606 263.072,65.374606 C263.072,65.374606 263.072,65.374606 263.072,65.374606 ZM316.424,71.854606Q311.096,71.854606 307.064,69.586606 Q303.032,67.318606 300.8,63.214606 Q298.568,59.110606 298.568,53.710606 Q298.568,52.846606 298.568,52.846606 Q298.568,47.374606 300.8,43.270606 Q303.032,39.166606 306.992,36.898606 Q310.952,34.630606 316.064,34.630606 Q321.032,34.630606 324.848,36.754606 Q328.664,38.878606 330.824,42.838606 Q332.984,46.798606 332.984,52.126606 Q332.984,54.718606 332.984,54.718606 C332.984,54.718606 304.256,54.718606 304.256,54.718606 Q304.472,60.406606 307.928,63.610606 Q311.384,66.814606 316.568,66.814606 Q321.104,66.814606 323.552,64.726606 Q326,62.638606 327.296,59.758606 Q332.192,62.134606 332.192,62.134606 Q331.112,64.366606 329.204,66.598606 Q327.296,68.830606 324.236,70.342606 Q321.176,71.854606 316.424,71.854606 Q316.424,71.854606 316.424,71.854606 ZM304.328,50.038606C304.328,50.038606 327.224,50.038606 327.224,50.038606 Q326.936,45.142606 323.876,42.406606 Q320.816,39.670606 316.064,39.670606 Q311.24,39.670606 308.144,42.406606 Q305.048,45.142606 304.328,50.038606 Q304.328,50.038606 304.328,50.038606 ZM342.92,70.846606C342.92,70.846606 342.92,20.446606 342.92,20.446606 C342.92,20.446606 348.608,20.446606 348.608,20.446606 C348.608,20.446606 348.608,70.846606 348.608,70.846606 C348.608,70.846606 342.92,70.846606 342.92,70.846606 C342.92,70.846606 342.92,70.846606 342.92,70.846606 ZM373.52,70.846606Q370.496,70.846606 368.876,69.190606 Q367.256,67.534606 367.256,64.654606 Q367.256,40.606606 367.256,40.606606 C367.256,40.606606 356.672,40.606606 356.672,40.606606 C356.672,40.606606 356.672,35.638606 356.672,35.638606 C356.672,35.638606 367.256,35.638606 367.256,35.638606 C367.256,35.638606 367.256,23.110606 367.256,23.110606 C367.256,23.110606 372.944,23.110606 372.944,23.110606 C372.944,23.110606 372.944,35.638606 372.944,35.638606 C372.944,35.638606 384.464,35.638606 384.464,35.638606 C384.464,35.638606 384.464,40.606606 384.464,40.606606 C384.464,40.606606 372.944,40.606606 372.944,40.606606 C372.944,40.606606 372.944,63.790606 372.944,63.790606 Q372.944,65.950606 375.032,65.950606 Q382.88,65.950606 382.88,65.950606 C382.88,65.950606 382.88,70.846606 382.88,70.846606 C382.88,70.846606 373.52,70.846606 373.52,70.846606 C373.52,70.846606 373.52,70.846606 373.52,70.846606 ZM404.264,71.854606Q400.592,71.854606 397.568,70.558606 Q394.544,69.262606 392.816,66.814606 Q391.088,64.366606 391.088,60.838606 Q391.088,57.238606 392.816,54.898606 Q394.544,52.558606 397.568,51.370606 Q400.592,50.182606 404.336,50.182606 Q416.216,50.182606 416.216,50.182606 C416.216,50.182606 416.216,47.590606 416.216,47.590606 Q416.216,43.846606 414.02,41.686606 Q411.824,39.526606 407.504,39.526606 Q403.256,39.526606 400.88,41.578606 Q398.504,43.630606 397.64,47.086606 Q392.312,45.358606 392.312,45.358606 Q393.176,42.406606 395.048,39.994606 Q396.92,37.582606 400.052,36.106606 Q403.184,34.630606 407.576,34.630606 Q414.344,34.630606 418.088,38.122606 Q421.832,41.614606 421.832,47.950606 Q421.832,63.862606 421.832,63.862606 Q421.832,66.022606 423.848,66.022606 Q427.088,66.022606 427.088,66.022606 C427.088,66.022606 427.088,70.846606 427.088,70.846606 C427.088,70.846606 422.12,70.846606 422.12,70.846606 Q419.744,70.846606 418.304,69.514606 Q416.864,68.182606 416.864,65.950606 Q416.864,65.590606 416.864,65.590606 C416.864,65.590606 416,65.590606 416,65.590606 Q415.208,66.958606 413.876,68.434606 Q412.544,69.910606 410.24,70.882606 Q407.936,71.854606 404.264,71.854606 Q404.264,71.854606 404.264,71.854606 ZM404.912,66.958606Q409.952,66.958606 413.084,63.970606 Q416.216,60.982606 416.216,55.582606 Q416.216,54.790606 416.216,54.790606 C416.216,54.790606 404.552,54.790606 404.552,54.790606 Q401.168,54.790606 398.972,56.266606 Q396.776,57.742606 396.776,60.694606 Q396.776,63.646606 399.044,65.302606 Q401.312,66.958606 404.912,66.958606 Q404.912,66.958606 404.912,66.958606 Z" transform="" fill="#000000"/>
		<path d="M104.456,76.674606L 427.088,76.674606 L 427.088,83.674606 L 104.456,83.674606 L 104.456,76.674606 Z" transform="matrix(1,0,0,1,0,0)" fill="url('#15634380612457655225')"/>
		<g transform="matrix(2.352655333,0,0,2.352655333,58.064387377,49.999998878)">
			<path d="M13.833334,0C13.833334,7.916082 7.416082,14.333334 -0.5,14.333334 C-8.416081,14.333334 -14.833333,7.916082 -14.833333,0 C-14.833333,-7.916081 -8.416081,-14.333333 -0.5,-14.333333 C7.416082,-14.333333 13.833334,-7.916081 13.833334,0 C13.833334,0 13.833334,0 13.833334,0 Z" transform="matrix(1,0,0,1,0,0)" fill="none" stroke="#000000" stroke-linecap="round" stroke-linejoin="round"/>
			<path d="M-10.78,9.980002C-8.18,7.300001 -4.533332,5.633334 -0.5,5.633334 C3.533333,5.633334 7.180001,7.300001 9.78,9.980002 " transform="matrix(1,0,0,1,0,0)" fill="none" stroke="#000000" stroke-linecap="round" stroke-linejoin="round"/>
			<path d="M-9.973333,10.746667C-7.446666,8.506666 -4.133333,7.160002 -0.5,7.160002 C3.133334,7.160002 6.446666,8.506666 8.973333,10.746667 M2.286001,3.655334C2.286001,3.655334 2.286001,2.630667 2.286001,2.630667 M1.773334,3.142668C1.773334,3.142668 2.798001,3.142668 2.798001,3.142668 M-3.286,3.655334C-3.286,3.655334 -3.286,2.630667 -3.286,2.630667 M-3.798,3.142668C-3.798,3.142668 -2.773333,3.142668 -2.773333,3.142668 M3.619335,-2.130666C3.619335,-2.130666 3.619335,-3.155333 3.619335,-3.155333 M3.106667,-2.642667C3.106667,-2.642667 4.131334,-2.642667 4.131334,-2.642667 M-4.619334,-2.130666C-4.619334,-2.130666 -4.619334,-3.155333 -4.619334,-3.155333 M-5.131333,-2.642667C-5.131333,-2.642667 -4.106666,-2.642667 -4.106666,-2.642667 M4.306667,-13.507333C2.080001,-3.229999 12.690001,-0.702667 12.956,4.946667 M8.478,-11.173333C6.589333,-5.876 13.378002,-1.738666 13.822002,0.571334 M-5.306666,-13.507333C-3.08,-3.229999 -13.69,-0.702667 -13.956,4.946667 M-9.478,-11.173333C-7.588667,-5.876 -14.378,-1.738666 -14.822,0.571334 M-0.5,-2.055999C-0.5,-2.055999 -0.207333,-1.428666 -0.207333,-1.428666 C-0.094,-1.185333 0.101334,-0.99 0.344001,-0.876667 C0.344001,-0.876667 0.971334,-0.584667 0.971334,-0.584667 C0.971334,-0.584667 0.344001,-0.291333 0.344001,-0.291333 C0.100913,-0.178712 -0.094417,0.016383 -0.207333,0.259334 C-0.207333,0.259334 -0.5,0.887333 -0.5,0.887333 C-0.5,0.887333 -0.792666,0.259334 -0.792666,0.259334 C-0.905454,0.016133 -1.100799,-0.179213 -1.344,-0.291999 C-1.344,-0.291999 -1.971333,-0.584667 -1.971333,-0.584667 C-1.971333,-0.584667 -1.344,-0.876667 -1.344,-0.876667 C-1.100686,-0.989618 -0.905325,-1.185216 -0.792666,-1.428666 C-0.792666,-1.428666 -0.5,-2.055999 -0.5,-2.055999 ZM-0.5,-9.513333C-0.5,-9.513333 -0.454666,-9.366667 -0.454666,-9.366667 C-0.189759,-8.511426 0.479995,-7.841921 1.335334,-7.577333 C1.335334,-7.577333 1.481334,-7.532 1.481334,-7.532 C1.481334,-7.532 1.334668,-7.486666 1.334668,-7.486666 C0.479427,-7.22176 -0.190078,-6.552005 -0.454666,-5.696666 C-0.454666,-5.696666 -0.5,-5.55 -0.5,-5.55 C-0.5,-5.55 -0.545333,-5.696666 -0.545333,-5.696666 C-0.810052,-6.552163 -1.479836,-7.221947 -2.335333,-7.486666 C-2.335333,-7.486666 -2.481333,-7.532 -2.481333,-7.532 C-2.481333,-7.532 -2.334667,-7.577333 -2.334667,-7.577333 C-1.479426,-7.84224 -0.809921,-8.511994 -0.545333,-9.367333 C-0.545333,-9.367333 -0.5,-9.513333 -0.5,-9.513333 ZM7.295335,1.986667C7.295335,1.986667 7.524667,2.479334 7.524667,2.479334 C7.614002,2.67 7.767335,2.823334 7.958001,2.912667 C7.958001,2.912667 8.451333,3.142 8.451333,3.142 C8.451333,3.142 7.958001,3.372001 7.958001,3.372001 C7.766981,3.460833 7.613498,3.614313 7.524667,3.805334 C7.524667,3.805334 7.295335,4.298001 7.295335,4.298001 C7.295335,4.298001 7.065334,3.804668 7.065334,3.804668 C6.976502,3.613647 6.823022,3.460166 6.632002,3.371333 C6.632002,3.371333 6.138667,3.142 6.138667,3.142 C6.138667,3.142 6.632002,2.912001 6.632002,2.912001 C6.822668,2.823334 6.976667,2.67 7.065334,2.478667 C7.065334,2.478667 7.295335,1.986667 7.295335,1.986667 ZM-8.296666,1.986667C-8.296666,1.986667 -8.066667,2.479334 -8.066667,2.479334 C-7.978,2.67 -7.824667,2.823334 -7.633333,2.912667 C-7.633333,2.912667 -7.140667,3.142 -7.140667,3.142 C-7.140667,3.142 -7.634,3.372001 -7.634,3.372001 C-7.82502,3.460833 -7.978501,3.614313 -8.067333,3.805334 C-8.067333,3.805334 -8.296666,4.298001 -8.296666,4.298001 C-8.296666,4.298001 -8.526666,3.804668 -8.526666,3.804668 C-8.615499,3.613647 -8.76898,3.460166 -8.959999,3.371333 C-8.959999,3.371333 -9.452666,3.142 -9.452666,3.142 C-9.452666,3.142 -8.959333,2.912001 -8.959333,2.912001 C-8.768666,2.823334 -8.615333,2.67 -8.525999,2.478667 C-8.525999,2.478667 -8.296666,1.986667 -8.296666,1.986667 Z" transform="matrix(1,0,0,1,0,0)" fill="none" stroke="#000000" stroke-linecap="round" stroke-linejoin="round"/>
			<path d="M-9.866667,10.84C-8.006667,9.346668 -5.646666,8.453334 -3.073333,8.453334 C0.533333,8.453334 3.733334,10.213334 5.706668,12.920002 " transform="matrix(1,0,0,1,0,0)" fill="none" stroke="#000000" stroke-linecap="round" stroke-linejoin="round"/>
		</g>
	</g>
</g></g></svg>
